<svg xmlns="http://www.w3.org/2000/svg" viewBox="0 0 64 64" width="64" height="64">
  <!-- Dark rounded-square background -->
  <rect width="64" height="64" rx="14" fill="#141820"/>
  <!-- Flame icon (lucide flame path, scaled to ~40x40 centered at 12,12 in 64x64) -->
  <g transform="translate(12, 11) scale(1.667)">
    <path
      d="M8.5 14.5A2.5 2.5 0 0 0 11 12c0-1.38-.5-2-1-3-1.072-2.143-.224-4.054 2-6 .5 2.5 2 4.9 4 6.5 2 1.6 3 3.5 3 5.5a7 7 0 1 1-14 0c0-1.153.433-2.294 1-3a2.5 2.5 0 0 0 2.5 2.5z"
      fill="none"
      stroke="#7BAF8A"
      stroke-width="1.8"
      stroke-linecap="round"
      stroke-linejoin="round"
    />
  </g>
</svg>
